Coordinates
version=1
nRows=4
nColumns=63
inDegrees=yes

Units are S.I. units (second, meters, Newtons, ...)
If the header above contains a line with 'inDegrees', this indicates whether rotational values are in degrees (yes) or radians (no).

endheader
time	pelvis_tilt	pelvis_list	pelvis_rotation	pelvis_tx	pelvis_ty	pelvis_tz	hip_flexion_r	hip_adduction_r	hip_rotation_r	knee_angle_r	knee_angle_r_beta	ankle_angle_r	subtalar_angle_r	mtp_angle_r	hip_flexion_l	hip_adduction_l	hip_rotation_l	knee_angle_l	knee_angle_l_beta	ankle_angle_l	subtalar_angle_l	mtp_angle_l	L5_S1_Flex_Ext	L5_S1_Lat_Bending	L5_S1_axial_rotation	L4_L5_Flex_Ext	L4_L5_Lat_Bending	L4_L5_axial_rotation	L3_L4_Flex_Ext	L3_L4_Lat_Bending	L3_L4_axial_rotation	L2_L3_Flex_Ext	L2_L3_Lat_Bending	L2_L3_axial_rotation	L1_L2_Flex_Ext	L1_L2_Lat_Bending	L1_L2_axial_rotation	L1_T12_Flex_Ext	L1_T12_Lat_Bending	L1_T12_axial_rotation	Abs_r3	Abs_r2	Abs_r1	Abs_t1	Abs_t2	neck_flexion	neck_bending	neck_rotation	arm_flex_r	arm_add_r	arm_rot_r	elbow_flex_r	pro_sup_r	wrist_flex_r	wrist_dev_r	arm_flex_l	arm_add_l	arm_rot_l	elbow_flex_l	pro_sup_l	wrist_flex_l	wrist_dev_l
      0.00000000	      2.47463221	     -2.01781685	     93.60721558	      0.20366443	      0.70451937	      0.91856867	      2.61658898	      1.89129228	      3.84463059	      3.35703134	      0.05859125	     13.78811083	     -2.46914925	      0.00000000	      2.11814199	     -4.28744346	      7.02574743	      3.59428210	      0.06273206	     17.99989171	    -10.81031612	      0.00000000	      0.31828194	      0.02925085	      1.27466081	      0.59108139	      0.03890363	      1.35432711	      0.52290540	      0.07112052	      1.35432711	      0.36376443	      0.07112052	      1.11532821	      0.29555661	      0.05964834	      1.03566191	      0.18186630	      0.04530957	      0.95599561	      2.27345607	      0.33089149	      7.08928104	      0.00000000	      0.00000000	     24.28285547	     -3.90380782	    -26.25174768	     11.42688157	     -9.18111285	     57.96684490	     40.83338094	     43.17005917	      9.41529374	     13.96269372	     20.64116850	     -9.12283939	     80.94155858	     43.47401379	     66.18903369	     -3.61182733	     -7.96766268
      0.02500000	      2.74498960	     -1.94271719	     92.56534677	      0.20465121	      0.70559146	      0.91749555	      2.82524457	      2.23463178	      4.29263318	      3.73616147	      0.06520832	     15.02635708	     -0.94599539	      0.00000000	      1.70876384	     -4.61304739	      6.67781942	      2.83682618	      0.04951196	     19.47856451	    -11.14639266	      0.00000000	      0.31852374	      0.05479800	      1.64291548	      0.59153043	      0.07288135	      1.74559770	      0.52330265	      0.13323587	      1.74559770	      0.36404078	      0.13323587	      1.43755104	      0.29578114	      0.11174409	      1.33486883	      0.18200446	      0.08488211	      1.23218661	      2.27518321	      0.61988599	      9.13740302	      0.00000000	      0.00000000	     24.53961196	     -3.92260632	    -26.92338209	     11.41309372	     -9.85258134	     58.29750710	     41.21847464	     47.00622969	     10.90998406	     12.97060506	     20.97524015	     -8.75875077	     81.93845154	     43.56474171	     65.69127428	     -1.45005104	     -5.55013912
      0.05000000	      2.80858404	     -2.04026227	     91.99370018	      0.20527031	      0.70611825	      0.91648439	      3.35653961	      2.17963300	      0.58611931	      4.56298353	      0.07963909	     17.13116458	      5.50550174	      0.00000000	      1.63707552	     -4.74362651	      5.01712596	      2.32454646	      0.04057099	     21.10084607	     -9.12434723	      0.00000000	      0.33400851	      0.04826423	      1.90645618	      0.62028720	      0.06419142	      2.02560969	      0.54874258	      0.11734964	      2.02560969	      0.38173832	      0.11734964	      1.66814916	      0.31016030	      0.09842041	      1.54899565	      0.19085246	      0.07476129	      1.42984214	      2.38578937	      0.54597458	     10.60313734	      0.00000000	      0.00000000	     24.66010101	     -4.39796461	    -28.73573973	      9.88794891	     -9.61938848	     52.08976731	     41.39996888	     64.82767209	     14.69713009	     10.15681147	     21.12103662	     -8.45510229	     82.70811659	     43.28197050	     65.71275793	     -0.33413020	     -5.37360510
      0.07500000	      2.86863908	     -1.99894048	     91.77170208	      0.20567266	      0.70648595	      0.91572317	      3.36174558	      2.27881727	      0.80712956	      4.68408581	      0.08175272	     17.67284335	      5.81756343	      0.00000000	      1.53148226	     -4.84621013	      4.96784740	      1.96798307	      0.03434778	     21.93678236	     -9.12616294	      0.00000000	      0.33658079	      0.05225790	      1.97457642	      0.62506418	      0.06950300	      2.09798745	      0.55296858	      0.12705985	      2.09798745	      0.38467818	      0.12705985	      1.72775437	      0.31254892	      0.10656430	      1.60434334	      0.19232226	      0.08094748	      1.48093232	      2.40416292	      0.59115177	     10.98200169	      0.00000000	      0.00000000	     24.80588085	     -4.26936155	    -28.73790693	      9.55937315	     -9.74363833	     51.40706334	     41.76139614	     64.60929908	     14.65549294	      9.51109650	     21.07016054	     -8.39711159	     82.91425686	     43.18383983	     65.88688301	     -0.34173607	     -5.25130345
